# xmcd
# 
# Track frame offsets:
#     150
#     79973
#     95455
#     139538
#     172218
# 
# Disc length: 2692
# 
# Revision: 2
# Processed by: cddbd v1.5.2PL0 Copyright (c) Steve Scherf et al.
# Submitted via: fre:ac v1.0.31
# 
DISCID=3d0a8205
DTITLE=Keith Jarrett - La Fenice  CD 1
DYEAR=2018
DGENRE=Jazz
TTITLE0=Part I
TTITLE1=Part II
TTITLE2=Part III
TTITLE3=Part IV
TTITLE4=Part V
EXTD=Keith Jarrett  piano - La Fenice  ECM 2018
EXTT0=Keith Jarrett (piano solo) live in Concert at Gran Teatro La Fenice (Venice July 19, 2006) - Part I
EXTT1=Keith Jarrett (piano solo) live in Concert at Gran Teatro La Fenice (Venice July 19, 2006) - Part II
EXTT2=Keith Jarrett (piano solo) live in Concert at Gran Teatro La Fenice (Venice July 19, 2006) - Part III
EXTT3=Keith Jarrett (piano solo) live in Concert at Gran Teatro La Fenice (Venice July 19, 2006) - Part IV
EXTT4=Keith Jarrett (piano solo) live in Concert at Gran Teatro La Fenice (Venice July 19, 2006) - Part V
PLAYORDER=
